<?xml version="1.0" standalone="no"?>
<!DOCTYPE svg PUBLIC "-//W3C//DTD SVG 20010904//EN"
 "https://www.w3.org/TR/2001/REC-SVG-20010904/DTD/svg10.dtd">
<svg version="1.0" xmlns="https://www.w3.org/2000/svg"
 width="512.000000pt" height="512.000000pt" viewBox="0 0 512.000000 512.000000"
 preserveAspectRatio="xMidYMid meet">
<metadata>
Created by potrace 1.11, written by Peter Selinger 2001-2013
</metadata>
<g transform="translate(0.000000,512.000000) scale(0.100000,-0.100000)"
fill="#000000" stroke="none">
<path d="M730 4205 l-19 -45 -78 0 c-129 0 -123 13 -123 -263 -1 -182 -4 -237
-15 -257 -19 -33 -19 -100 0 -126 12 -18 29 -22 102 -28 102 -9 135 -22 202
-82 67 -60 81 -94 81 -196 0 -155 -48 -376 -141 -644 -55 -160 -93 -232 -228
-429 -221 -322 -302 -470 -374 -680 -58 -169 -57 -240 3 -309 35 -39 139 -108
191 -127 26 -8 42 -23 53 -47 9 -19 28 -50 43 -68 l25 -34 467 0 c422 0 469 2
491 17 37 25 41 33 38 90 -1 45 2 56 29 86 38 44 47 81 38 163 -8 78 8 139 72
277 42 88 51 100 96 128 l50 30 -8 52 c-15 95 -10 118 41 222 47 95 51 100 92
113 52 17 60 41 42 119 l-14 55 70 140 c38 77 79 147 91 155 12 8 49 17 81 20
55 5 67 2 153 -37 l92 -43 451 7 c251 4 468 11 490 17 47 13 86 50 86 82 0 14
-12 51 -26 83 -24 54 -27 74 -32 226 -6 188 -3 198 66 242 36 24 44 25 492 46
250 12 463 25 472 31 24 13 95 11 104 -2 13 -22 327 11 459 48 21 6 36 21 50
48 17 35 20 64 23 217 3 159 6 178 23 194 17 15 19 32 19 165 0 132 -2 149
-18 161 -11 8 -21 31 -25 56 -8 65 -29 82 -99 82 -32 0 -58 4 -58 10 0 5 -13
16 -30 25 -28 15 -30 14 -46 -10 l-16 -25 -859 0 c-561 0 -860 -3 -864 -10 -4
-6 -132 -10 -350 -10 -218 0 -346 4 -350 10 -4 7 -263 10 -744 10 l-737 0 -12
45 c-12 44 -13 45 -52 45 -39 0 -42 -2 -60 -45z m2337 -1051 c63 -31 118 -90
132 -141 14 -51 14 -176 -1 -224 -15 -51 -67 -112 -115 -134 -33 -16 -77 -19
-350 -23 -305 -5 -313 -4 -372 18 -77 28 -137 80 -151 128 -21 78 -4 196 32
218 17 11 39 -19 36 -50 -3 -31 -2 -31 47 -34 61 -4 73 -13 77 -60 2 -31 7
-38 28 -40 13 -2 47 -25 76 -51 49 -45 166 -111 197 -111 8 0 20 7 27 15 7 8
9 15 4 15 -5 0 2 6 16 13 14 7 25 19 25 26 0 8 -34 42 -75 76 -92 75 -119 121
-127 213 -8 94 8 139 50 147 73 13 189 22 288 24 94 1 110 -2 156 -25z"/>
</g>
</svg>
